<?xml version="1.0" encoding="UTF-8" standalone="no"?>
<!-- Creator: fig2dev Version 3.2.9 -->
<!-- CreationDate: 2024-09-05 15:57:00 -->
<!-- Magnification: 1.05 -->
<svg	xmlns="http://www.w3.org/2000/svg"
	xmlns:xlink="http://www.w3.org/1999/xlink"
	width="490pt" height="193pt"
	viewBox="1467 2261 7773 3061">
<g fill="none">
<!-- Line -->
<rect x="2835" y="2520" width="2970" height="315" fill="#00d1d1"
	stroke="#000000" stroke-width="8px"/>
<!-- Line -->
<rect x="2835" y="2835" width="2970" height="315" fill="#00d1d1"
	stroke="#000000" stroke-width="8px"/>
<!-- Line -->
<rect x="2835" y="3915" width="2970" height="315" fill="#ffffff"
	stroke="#000000" stroke-width="8px"/>
<!-- Line -->
<rect x="2835" y="4995" width="2970" height="315" fill="#00b000"
	stroke="#000000" stroke-width="8px"/>
<!-- Line -->
<rect x="6255" y="3915" width="2970" height="315" fill="#ffffff"
	stroke="#000000" stroke-width="8px"/>
<!-- Line -->
<defs>
<clipPath id="cp0">
	<path clip-rule="evenodd" d="M 1467,2261 H 9240 V 5322 H 1467 z
		M 5958,5205 5838,5175 5958,5145 5795,5165 5795,5186z"/>
</clipPath>
</defs>
<polyline points=" 7740,4230 7740,5175 5805,5175" clip-path="url(#cp0)"
	stroke="#000000" stroke-width="15px"/>
<!-- Forward arrow to point 5805,5175 -->
<polyline points=" 5958,5205 5838,5175 5958,5145"
	stroke="#000000" stroke-width="15px" stroke-miterlimit="8"/>
<!-- Line -->
<defs>
<clipPath id="cp1">
	<path clip-rule="evenodd" d="M 1467,2261 H 9240 V 5322 H 1467 z
		M 7770,3762 7740,3882 7710,3762 7730,3926 7751,3926z"/>
</clipPath>
</defs>
<polyline points=" 5805,2700 7740,2700 7740,3915" clip-path="url(#cp1)"
	stroke="#000000" stroke-width="15px"/>
<!-- Forward arrow to point 7740,3915 -->
<polyline points=" 7770,3762 7740,3882 7710,3762"
	stroke="#000000" stroke-width="15px" stroke-miterlimit="8"/>
<!-- Line -->
<polygon points=" 4275,4230 4095,4320 4185,4320 4185,4905 4095,4905 4275,4995 4455,4905 4365,4905
 4365,4320 4455,4320" fill="#ffe0e0"
	stroke="#000000" stroke-width="8px"/>
<!-- Line -->
<polygon points=" 4275,3150 4095,3240 4185,3240 4185,3825 4095,3825 4275,3915 4455,3825 4365,3825
 4365,3240 4455,3240" fill="#ffe0e0"
	stroke="#000000" stroke-width="8px"/>
<!-- Text -->
<text xml:space="preserve" x="4275" y="2745" fill="#000000" font-family="Helvetica" font-style="normal" font-weight="normal" font-size="192" text-anchor="middle">Ra</text>
<!-- Text -->
<text xml:space="preserve" x="2835" y="2475" fill="#000000" font-family="Helvetica" font-style="normal" font-weight="normal" font-size="192" text-anchor="start">31</text>
<!-- Text -->
<text xml:space="preserve" x="5805" y="2475" fill="#000000" font-family="Helvetica" font-style="normal" font-weight="normal" font-size="192" text-anchor="end">0</text>
<!-- Text -->
<text xml:space="preserve" x="4275" y="3060" fill="#000000" font-family="Helvetica" font-style="normal" font-weight="normal" font-size="192" text-anchor="middle">Rd</text>
<!-- Text -->
<text xml:space="preserve" x="2835" y="3870" fill="#000000" font-family="Helvetica" font-style="normal" font-weight="normal" font-size="192" text-anchor="start">31</text>
<!-- Text -->
<text xml:space="preserve" x="5805" y="3870" fill="#000000" font-family="Helvetica" font-style="normal" font-weight="normal" font-size="192" text-anchor="end">0</text>
<!-- Text -->
<text xml:space="preserve" x="5805" y="4950" fill="#000000" font-family="Helvetica" font-style="normal" font-weight="normal" font-size="192" text-anchor="end">0</text>
<!-- Text -->
<text xml:space="preserve" x="2520" y="4140" fill="#000000" font-family="Helvetica" font-style="normal" font-weight="normal" font-size="192" text-anchor="end">Illesztő</text>
<!-- Text -->
<text xml:space="preserve" x="2520" y="2925" fill="#000000" font-family="Helvetica" font-style="normal" font-weight="normal" font-size="192" text-anchor="end">CPU</text>
<!-- Text -->
<text xml:space="preserve" x="4275" y="4140" fill="#000000" font-family="Helvetica" font-style="normal" font-weight="normal" font-size="192" text-anchor="middle">Adat</text>
<!-- Text -->
<text xml:space="preserve" x="7740" y="4140" fill="#000000" font-family="Helvetica" font-style="normal" font-weight="normal" font-size="192" text-anchor="middle">cím</text>
<!-- Text -->
<text xml:space="preserve" x="6255" y="3870" fill="#000000" font-family="Helvetica" font-style="normal" font-weight="normal" font-size="192" text-anchor="start">31</text>
<!-- Text -->
<text xml:space="preserve" x="9225" y="3870" fill="#000000" font-family="Helvetica" font-style="normal" font-weight="normal" font-size="192" text-anchor="end">0</text>
<!-- Text -->
<text xml:space="preserve" x="2835" y="4950" fill="#000000" font-family="Helvetica" font-style="normal" font-weight="normal" font-size="192" text-anchor="start">31</text>
<!-- Text -->
<text xml:space="preserve" x="2520" y="5220" fill="#000000" font-family="Helvetica" font-style="normal" font-weight="normal" font-size="192" text-anchor="end">Memória</text>
</g>
</svg>
